<svg xmlns="http://www.w3.org/2000/svg" xmlns:xlink="http://www.w3.org/1999/xlink" zoomAndPan="magnify" preserveAspectRatio="xMidYMid meet" version="1.0" viewBox="21.95 76.61 331.08 92.49"><defs><g/></defs><g fill="#fd4701" fill-opacity="1"><g transform="translate(21.016874, 143.778948)"><g><path d="M 0.9375 0 L 0.9375 -50.359375 C 0.9375 -53.429688 1.6875 -56.234375 3.1875 -58.765625 C 4.695312 -61.304688 6.71875 -63.328125 9.25 -64.828125 C 11.789062 -66.328125 14.59375 -67.078125 17.65625 -67.078125 C 20.726562 -67.078125 23.5 -66.328125 25.96875 -64.828125 C 28.445312 -63.328125 30.421875 -61.304688 31.890625 -58.765625 C 33.367188 -56.234375 34.109375 -53.429688 34.109375 -50.359375 L 34.109375 -43.125 L 18.515625 -43.125 L 18.515625 -50.359375 C 18.515625 -50.921875 18.226562 -51.203125 17.65625 -51.203125 C 17.09375 -51.203125 16.8125 -50.921875 16.8125 -50.359375 L 16.8125 -41.4375 L 34.109375 -41.4375 L 34.109375 -25.46875 L 16.8125 -25.46875 L 16.8125 0 Z M 0.9375 0 "/></g></g></g><g fill="#fd4701" fill-opacity="1"><g transform="translate(56.059928, 143.778948)"><g><path d="M 0.9375 -16.4375 L 0.9375 -50.359375 C 0.9375 -53.429688 1.6875 -56.234375 3.1875 -58.765625 C 4.695312 -61.304688 6.703125 -63.328125 9.203125 -64.828125 C 11.710938 -66.328125 14.4375 -67.078125 17.375 -67.078125 C 20.570312 -67.078125 23.421875 -66.328125 25.921875 -64.828125 C 28.429688 -63.328125 30.421875 -61.304688 31.890625 -58.765625 C 33.367188 -56.234375 34.109375 -53.429688 34.109375 -50.359375 L 34.109375 -43.125 L 18.234375 -43.125 L 18.234375 -50.359375 C 18.234375 -50.921875 17.992188 -51.203125 17.515625 -51.203125 C 17.046875 -51.203125 16.8125 -50.921875 16.8125 -50.359375 L 16.8125 -41.4375 L 34.109375 -41.4375 L 34.109375 -25.46875 L 16.8125 -25.46875 L 16.8125 -15.59375 C 16.8125 -15.15625 17.046875 -14.921875 17.515625 -14.890625 C 17.992188 -14.859375 18.234375 -15.09375 18.234375 -15.59375 L 18.234375 -23.953125 L 34.109375 -23.953125 L 34.109375 -16.4375 C 34.109375 -13.375 33.382812 -10.601562 31.9375 -8.125 C 30.5 -5.65625 28.539062 -3.679688 26.0625 -2.203125 C 23.59375 -0.734375 20.789062 0 17.65625 0 C 14.65625 0 11.882812 -0.75 9.34375 -2.25 C 6.8125 -3.757812 4.773438 -5.765625 3.234375 -8.265625 C 1.703125 -10.773438 0.9375 -13.5 0.9375 -16.4375 Z M 0.9375 -16.4375 "/></g></g></g><g fill="#fd4701" fill-opacity="1"><g transform="translate(91.102982, 143.778948)"><g><path d="M 17.84375 -67.171875 C 20.976562 -67.171875 23.78125 -66.453125 26.25 -65.015625 C 28.726562 -63.578125 30.671875 -61.664062 32.078125 -59.28125 C 33.492188 -56.90625 34.203125 -54.304688 34.203125 -51.484375 L 34.203125 -37.859375 C 34.203125 -36.046875 33.96875 -34.195312 33.5 -32.3125 C 33.03125 -30.4375 32.242188 -28.742188 31.140625 -27.234375 C 30.046875 -25.734375 28.53125 -24.640625 26.59375 -23.953125 C 29.84375 -22.515625 31.921875 -20.523438 32.828125 -17.984375 C 33.742188 -15.453125 34.203125 -12.617188 34.203125 -9.484375 L 34.203125 0 L 18.609375 0 L 18.609375 -50.359375 C 18.609375 -50.921875 18.335938 -51.203125 17.796875 -51.203125 C 17.265625 -51.203125 17 -50.921875 17 -50.359375 L 17 0 L 0.9375 0 L 0.9375 -50.359375 C 0.9375 -53.429688 1.671875 -56.234375 3.140625 -58.765625 C 4.617188 -61.304688 6.625 -63.34375 9.15625 -64.875 C 11.695312 -66.40625 14.59375 -67.171875 17.84375 -67.171875 Z M 17.84375 -67.171875 "/></g></g></g><g fill="#fd4701" fill-opacity="1"><g transform="translate(126.146036, 143.778948)"><g><path d="M 17.46875 -67.078125 C 19.164062 -67.078125 20.734375 -66.765625 22.171875 -66.140625 C 23.609375 -65.515625 24.957031 -64.671875 26.21875 -63.609375 C 27.53125 -64.671875 28.90625 -65.515625 30.34375 -66.140625 C 31.78125 -66.765625 33.316406 -67.078125 34.953125 -67.078125 C 38.210938 -67.078125 41.09375 -66.296875 43.59375 -64.734375 C 46.101562 -63.171875 48.0625 -61.117188 49.46875 -58.578125 C 50.875 -56.046875 51.578125 -53.242188 51.578125 -50.171875 L 51.578125 0 L 35.890625 0 L 35.890625 -50.359375 C 35.890625 -50.921875 35.609375 -51.203125 35.046875 -51.203125 C 34.484375 -51.203125 34.203125 -50.921875 34.203125 -50.359375 L 34.203125 0 L 18.421875 0 L 18.421875 -50.359375 C 18.421875 -50.921875 18.117188 -51.203125 17.515625 -51.203125 C 16.921875 -51.203125 16.625 -50.921875 16.625 -50.359375 L 16.625 0 L 0.9375 0 L 0.9375 -50.171875 C 0.9375 -53.242188 1.640625 -56.046875 3.046875 -58.578125 C 4.460938 -61.117188 6.421875 -63.171875 8.921875 -64.734375 C 11.429688 -66.296875 14.28125 -67.078125 17.46875 -67.078125 Z M 17.46875 -67.078125 "/></g></g></g><g fill="#fd4701" fill-opacity="1"><g transform="translate(178.663634, 143.778948)"><g><path d="M 0.9375 -16.4375 L 0.9375 -50.359375 C 0.9375 -53.429688 1.6875 -56.234375 3.1875 -58.765625 C 4.695312 -61.304688 6.703125 -63.328125 9.203125 -64.828125 C 11.710938 -66.328125 14.4375 -67.078125 17.375 -67.078125 C 20.570312 -67.078125 23.421875 -66.328125 25.921875 -64.828125 C 28.429688 -63.328125 30.421875 -61.304688 31.890625 -58.765625 C 33.367188 -56.234375 34.109375 -53.429688 34.109375 -50.359375 L 34.109375 -43.125 L 18.234375 -43.125 L 18.234375 -50.359375 C 18.234375 -50.921875 17.992188 -51.203125 17.515625 -51.203125 C 17.046875 -51.203125 16.8125 -50.921875 16.8125 -50.359375 L 16.8125 -41.4375 L 34.109375 -41.4375 L 34.109375 -25.46875 L 16.8125 -25.46875 L 16.8125 -15.59375 C 16.8125 -15.15625 17.046875 -14.921875 17.515625 -14.890625 C 17.992188 -14.859375 18.234375 -15.09375 18.234375 -15.59375 L 18.234375 -23.953125 L 34.109375 -23.953125 L 34.109375 -16.4375 C 34.109375 -13.375 33.382812 -10.601562 31.9375 -8.125 C 30.5 -5.65625 28.539062 -3.679688 26.0625 -2.203125 C 23.59375 -0.734375 20.789062 0 17.65625 0 C 14.65625 0 11.882812 -0.75 9.34375 -2.25 C 6.8125 -3.757812 4.773438 -5.765625 3.234375 -8.265625 C 1.703125 -10.773438 0.9375 -13.5 0.9375 -16.4375 Z M 0.9375 -16.4375 "/></g></g></g><g fill="#fd4701" fill-opacity="1"><g transform="translate(213.706688, 143.778948)"><g><path d="M 17.65625 -67.078125 C 20.914062 -67.078125 23.78125 -66.296875 26.25 -64.734375 C 28.726562 -63.171875 30.671875 -61.117188 32.078125 -58.578125 C 33.492188 -56.046875 34.203125 -53.242188 34.203125 -50.171875 L 34.203125 0 L 18.515625 0 L 18.515625 -50.359375 C 18.515625 -50.921875 18.226562 -51.203125 17.65625 -51.203125 C 17.09375 -51.203125 16.8125 -50.921875 16.8125 -50.359375 L 16.8125 0 L 0.9375 0 L 0.9375 -50.171875 C 0.9375 -53.242188 1.640625 -56.046875 3.046875 -58.578125 C 4.460938 -61.117188 6.4375 -63.171875 8.96875 -64.734375 C 11.507812 -66.296875 14.40625 -67.078125 17.65625 -67.078125 Z M 17.65625 -67.078125 "/></g></g></g><g fill="#fd4701" fill-opacity="1"><g transform="translate(248.843687, 143.778948)"><g><path d="M 0.84375 -67.078125 L 34.203125 -67.078125 L 34.203125 -51.203125 L 25.5625 -51.203125 L 25.5625 0 L 9.671875 0 L 9.671875 -51.203125 L 0.84375 -51.203125 Z M 0.84375 -67.078125 "/></g></g></g><g fill="#fd4701" fill-opacity="1"><g transform="translate(283.886729, 143.778948)"><g><path d="M 0.9375 -16.4375 L 0.9375 -50.359375 C 0.9375 -53.429688 1.6875 -56.234375 3.1875 -58.765625 C 4.695312 -61.304688 6.703125 -63.328125 9.203125 -64.828125 C 11.710938 -66.328125 14.4375 -67.078125 17.375 -67.078125 C 20.570312 -67.078125 23.421875 -66.328125 25.921875 -64.828125 C 28.429688 -63.328125 30.421875 -61.304688 31.890625 -58.765625 C 33.367188 -56.234375 34.109375 -53.429688 34.109375 -50.359375 L 34.109375 -43.125 L 18.234375 -43.125 L 18.234375 -50.359375 C 18.234375 -50.921875 17.992188 -51.203125 17.515625 -51.203125 C 17.046875 -51.203125 16.8125 -50.921875 16.8125 -50.359375 L 16.8125 -41.4375 L 34.109375 -41.4375 L 34.109375 -25.46875 L 16.8125 -25.46875 L 16.8125 -15.59375 C 16.8125 -15.15625 17.046875 -14.921875 17.515625 -14.890625 C 17.992188 -14.859375 18.234375 -15.09375 18.234375 -15.59375 L 18.234375 -23.953125 L 34.109375 -23.953125 L 34.109375 -16.4375 C 34.109375 -13.375 33.382812 -10.601562 31.9375 -8.125 C 30.5 -5.65625 28.539062 -3.679688 26.0625 -2.203125 C 23.59375 -0.734375 20.789062 0 17.65625 0 C 14.65625 0 11.882812 -0.75 9.34375 -2.25 C 6.8125 -3.757812 4.773438 -5.765625 3.234375 -8.265625 C 1.703125 -10.773438 0.9375 -13.5 0.9375 -16.4375 Z M 0.9375 -16.4375 "/></g></g></g><g fill="#fd4701" fill-opacity="1"><g transform="translate(318.929772, 143.778948)"><g><path d="M 34.109375 -16.71875 C 34.109375 -13.71875 33.351562 -10.960938 31.84375 -8.453125 C 30.34375 -5.953125 28.320312 -3.929688 25.78125 -2.390625 C 23.25 -0.859375 20.445312 -0.0625 17.375 0 L 0.9375 0 L 0.9375 -67.078125 L 17.375 -67.078125 C 20.445312 -67.078125 23.25 -66.328125 25.78125 -64.828125 C 28.320312 -63.328125 30.34375 -61.304688 31.84375 -58.765625 C 33.351562 -56.234375 34.109375 -53.429688 34.109375 -50.359375 Z M 16.8125 -14.9375 C 17.25 -14.9375 17.609375 -14.984375 17.890625 -15.078125 C 18.179688 -15.171875 18.328125 -15.5 18.328125 -16.0625 L 18.328125 -50.171875 C 18.328125 -50.859375 18.179688 -51.203125 17.890625 -51.203125 C 17.609375 -51.203125 17.25 -51.203125 16.8125 -51.203125 Z M 16.8125 -14.9375 "/></g></g></g><path stroke-linecap="butt" transform="matrix(2.458381, 0, 0, 2.458381, 52.498019, 121.470681)" fill="none" stroke-linejoin="miter" d="M 18.337317 18.895037 C 17.469749 18.895037 16.762665 18.720252 16.212887 18.369094 C 15.667877 18.022702 15.270639 17.573028 15.021173 17.021662 C 14.771708 16.465529 14.64618 15.896684 14.64618 15.313538 C 14.64618 14.730392 14.763763 14.17267 15.000517 13.64196 C 15.232504 13.106483 15.563006 12.672699 15.988845 12.339019 C 16.416273 12.002161 16.915204 11.833732 17.484049 11.833732 C 17.69538 11.833732 17.80184 11.919536 17.80184 12.089554 C 17.80184 12.561472 18.005226 12.942821 18.410409 13.235188 C 18.81718 13.525967 19.311345 13.67215 19.89449 13.67215 C 20.56185 13.67215 21.272112 13.38455 22.025275 12.80776 C 22.778439 12.232559 23.404486 11.303022 23.905006 10.022326 C 24.089325 9.539285 24.276821 9.040354 24.467495 8.522355 C 24.661347 8.001179 24.850433 7.513371 25.034751 7.05893 C 25.177757 6.687115 25.365253 6.423349 25.59724 6.267632 C 25.833994 6.111915 26.107294 6.032467 26.420318 6.032467 C 26.874758 6.032467 27.162359 6.137338 27.284708 6.345491 C 27.405468 6.550465 27.430892 6.830121 27.3578 7.184457 C 27.287886 7.527671 27.152825 7.951921 26.951028 8.45403 C 26.753998 8.957728 26.539489 9.483672 26.31068 10.03186 C 26.085049 10.581638 25.891197 11.099636 25.727535 11.589034 C 25.563872 12.078431 25.482836 12.488381 25.482836 12.818883 C 25.482836 13.085827 25.563872 13.316225 25.727535 13.511666 C 25.891197 13.70234 26.151785 13.797677 26.509299 13.797677 C 26.97804 13.797677 27.40229 13.637193 27.785228 13.317814 C 28.169754 12.998434 28.508201 12.577362 28.800569 12.053008 C 29.091347 11.525475 29.315389 10.94233 29.471106 10.303571 C 29.628413 9.661634 29.706271 9.027642 29.706271 8.403184 C 29.706271 7.791437 29.595045 7.230537 29.372591 6.720483 C 29.154905 6.207252 28.770378 5.789357 28.22219 5.469978 C 27.677179 5.14742 26.912893 4.986936 25.93092 4.986936 C 25.260383 4.986936 24.620035 5.098163 24.009877 5.319027 C 23.39813 5.538303 22.899199 5.87675 22.514673 6.334368 C 22.133324 6.790397 21.941061 7.387843 21.941061 8.126706 C 21.941061 8.43973 22.020509 8.69714 22.176226 8.902115 C 22.331943 9.10709 22.524206 9.210372 22.754605 9.210372 C 22.910322 9.22785 22.948457 9.378801 22.869009 9.663223 C 22.792739 9.944468 22.622722 10.267025 22.358955 10.630895 C 22.095189 10.993176 21.756742 11.307789 21.343615 11.5795 C 20.933665 11.849622 20.47128 11.984683 19.958048 11.984683 C 19.374903 11.984683 18.883916 11.840088 18.4835 11.547721 C 18.087851 11.256942 17.789128 10.872416 17.58892 10.397319 C 17.390301 9.920633 17.291786 9.412169 17.291786 8.871925 C 17.291786 7.961455 17.495172 7.101832 17.900355 6.293055 C 18.307127 5.4811 18.87915 4.762894 19.619601 4.136847 C 20.358464 3.50921 21.235566 3.018224 22.249318 2.663888 C 23.266247 2.309551 24.388048 2.133178 25.61313 2.133178 C 26.97804 2.133178 28.125264 2.312729 29.054801 2.67501 C 29.985927 3.035703 30.732735 3.533045 31.293635 4.168626 C 31.856124 4.801029 32.261307 5.525591 32.507595 6.345491 C 32.75706 7.160623 32.882587 8.023424 32.882587 8.933894 C 32.882587 10.073173 32.712569 11.193384 32.372534 12.297706 C 32.032498 13.39885 31.566935 14.393535 30.977433 15.281759 C 30.386343 16.169983 29.706271 16.881834 28.935629 17.417311 C 28.168165 17.948021 27.359389 18.213376 26.509299 18.213376 C 25.627431 18.213376 24.928291 17.948021 24.41506 17.417311 C 23.905006 16.881834 23.620584 16.173161 23.561792 15.292882 C 22.964346 16.398793 22.217539 17.277483 21.32137 17.927365 C 20.426789 18.572479 19.432105 18.895037 18.337317 18.895037 Z M 41.775954 12.157878 C 41.890359 11.986272 42.03972 11.925891 42.224039 11.975149 C 42.408357 12.022818 42.560896 12.119744 42.683246 12.26116 C 42.804006 12.404166 42.821485 12.545583 42.734092 12.688589 C 42.592676 12.917398 42.422658 13.249489 42.224039 13.683273 C 42.027008 14.113879 41.788666 14.574675 41.510599 15.068839 C 41.232532 15.558237 40.908386 16.026978 40.536571 16.473473 C 40.169523 16.921558 39.754807 17.288606 39.292421 17.573028 C 38.830036 17.857451 38.30886 18.000457 37.725714 18.000457 C 37.14098 18.000457 36.678595 17.890819 36.333792 17.671543 C 35.993756 17.44909 35.749057 17.164668 35.599696 16.818276 C 35.450334 16.467117 35.375654 16.11437 35.375654 15.760034 C 35.375654 15.26428 35.450334 14.774883 35.599696 14.291842 C 35.749057 13.805622 35.923842 13.343237 36.120872 12.901508 C 36.322669 12.461368 36.497454 12.056186 36.646816 11.689138 C 36.796177 11.317323 36.870858 11.00271 36.870858 10.7453 C 36.870858 10.634073 36.789821 10.470411 36.626159 10.251136 C 36.462497 10.028682 36.168541 9.839597 35.741113 9.68388 C 35.612408 9.965124 35.459868 10.294037 35.281905 10.673797 C 35.105532 11.051968 34.927569 11.420605 34.746428 11.782886 C 34.568466 12.143578 34.42546 12.445479 34.314233 12.688589 C 34.226841 12.872907 34.087013 12.939643 33.891572 12.891975 C 33.700898 12.842717 33.542003 12.741024 33.413297 12.583718 C 33.28777 12.428 33.267114 12.284995 33.351328 12.157878 C 33.551536 11.871867 33.772401 11.455562 34.012332 10.907373 C 34.255442 10.359184 34.468362 9.842775 34.65268 9.361322 C 34.44135 9.291408 34.271332 9.172237 34.142627 9.00063 C 34.013921 8.827434 33.948774 8.549368 33.948774 8.168019 C 33.948774 7.869296 34.028222 7.57534 34.183939 7.282972 C 34.339657 6.990605 34.560521 6.745907 34.844944 6.548876 C 35.129366 6.34708 35.463046 6.246976 35.844395 6.246976 C 36.514933 6.246976 37.158458 6.375681 37.776561 6.631502 C 38.394663 6.888912 38.903128 7.213059 39.303544 7.60553 C 39.702371 7.994823 39.90099 8.37935 39.90099 8.762287 C 39.90099 9.161114 39.826309 9.539285 39.678537 9.896799 C 39.529175 10.251136 39.375047 10.613417 39.21933 10.985232 C 39.063612 11.353869 38.985754 11.757462 38.985754 12.199191 C 38.985754 12.497914 39.084269 12.74738 39.281299 12.949177 C 39.479918 13.146207 39.821543 13.246311 40.307762 13.246311 C 40.633497 13.246311 40.906797 13.143029 41.126072 12.938054 C 41.346937 12.729901 41.564623 12.469313 41.775954 12.157878 Z M 45.295484 18.000457 C 44.442216 18.000457 43.739899 17.809782 43.191711 17.426845 C 42.6467 17.042318 42.241517 16.533853 41.977751 15.90145 C 41.713985 15.265869 41.586869 14.568319 41.593224 13.807211 C 41.59958 13.047692 41.731463 12.286584 41.988874 11.527064 C 42.246284 10.767545 42.614921 10.069995 43.097962 9.439181 C 43.581004 8.8036 44.167327 8.295135 44.858522 7.913787 C 45.549716 7.527671 46.328303 7.335408 47.195871 7.335408 C 47.863231 7.335408 48.406652 7.459346 48.826136 7.710401 C 49.245619 7.956688 49.555465 8.285601 49.752495 8.698729 C 49.951114 9.111857 50.049629 9.553585 50.049629 10.022326 C 50.049629 10.535558 49.908212 11.047201 49.62379 11.558843 C 49.342545 12.068897 48.943718 12.491559 48.430487 12.828416 C 47.920433 13.162096 47.316631 13.328936 46.619081 13.328936 C 46.320358 13.328936 46.027991 13.30828 45.743568 13.266967 C 45.459146 13.220888 45.196969 13.127139 44.957037 12.985723 C 44.883945 12.942821 44.804497 12.941232 44.717105 12.979367 C 44.634479 13.014324 44.593167 13.103305 44.593167 13.246311 C 44.593167 13.613359 44.809264 13.894603 45.243048 14.088456 C 45.676832 14.280719 46.199598 14.376056 46.811344 14.376056 C 47.535906 14.376056 48.285892 14.191738 49.061301 13.823101 C 49.835121 13.452875 50.462757 12.896741 50.945798 12.157878 C 51.060203 11.986272 51.209564 11.925891 51.393883 11.975149 C 51.581379 12.022818 51.733919 12.119744 51.851501 12.26116 C 51.973851 12.404166 51.992918 12.545583 51.908704 12.688589 C 50.968044 14.423725 49.938403 15.744144 48.821369 16.646669 C 47.705924 17.549194 46.531689 18.000457 45.295484 18.000457 Z M 46.066126 11.73045 C 46.476075 11.73045 46.797044 11.598567 47.029031 11.334801 C 47.265785 11.071035 47.383367 10.802502 47.383367 10.53238 C 47.383367 10.292448 47.30233 10.087473 47.138668 9.917456 C 46.976595 9.74426 46.731897 9.656867 46.404572 9.656867 C 45.991445 9.656867 45.664121 9.785573 45.421011 10.042983 C 45.181079 10.300393 45.061908 10.570515 45.061908 10.854938 C 45.061908 11.080569 45.142944 11.283955 45.306606 11.465095 C 45.468679 11.641469 45.722912 11.73045 46.066126 11.73045 Z M 52.71748 18.000457 C 51.991329 18.000457 51.44314 17.701733 51.071326 17.104287 C 50.702689 16.506841 50.519959 15.733021 50.519959 14.781239 C 50.519959 14.180615 50.59464 13.543445 50.744001 12.871318 C 50.893363 12.192835 51.112638 11.528653 51.405006 10.875594 C 51.695784 10.224123 52.062832 9.629855 52.502972 9.094378 C 52.944701 8.56049 53.456343 8.133062 54.039489 7.813683 C 54.622634 7.494303 55.283638 7.335408 56.02409 7.335408 C 56.451519 7.335408 56.780432 7.375132 57.012419 7.454579 C 57.249173 7.530849 57.428724 7.626186 57.549485 7.740591 C 57.671834 7.854995 57.773527 7.95351 57.856152 8.032958 C 57.943545 8.109228 58.057949 8.147363 58.200955 8.147363 C 58.439298 8.147363 58.634739 8.079038 58.784101 7.943977 C 58.933462 7.808916 59.100302 7.673855 59.283032 7.538794 C 59.470528 7.402144 59.727938 7.335408 60.053674 7.335408 C 60.339685 7.335408 60.535126 7.406911 60.643175 7.548328 C 60.751224 7.691333 60.803659 7.883596 60.803659 8.126706 C 60.803659 8.522355 60.692433 8.916416 60.471568 9.308887 C 60.252293 9.701358 60.021895 10.209823 59.778785 10.834281 C 59.424448 11.616046 59.292565 12.213492 59.383136 12.626619 C 59.476884 13.039747 59.758128 13.246311 60.226869 13.246311 C 60.593917 13.246311 60.913297 13.149385 61.185008 12.958711 C 61.45513 12.764858 61.698239 12.497914 61.912748 12.157878 C 62.023975 11.986272 62.168569 11.925891 62.344943 11.975149 C 62.526084 12.022818 62.675445 12.119744 62.793028 12.26116 C 62.915377 12.404166 62.9408 12.545583 62.870886 12.688589 C 62.615065 13.184342 62.340176 13.737297 62.049398 14.344277 C 61.757031 14.948079 61.432884 15.528047 61.07537 16.08418 C 60.721034 16.635546 60.315851 17.093165 59.86141 17.458624 C 59.40697 17.819316 58.881027 18.000457 58.283581 18.000457 C 57.544718 18.000457 57.021952 17.701733 56.716874 17.104287 C 56.410206 16.506841 56.322813 15.767978 56.451519 14.88611 L 56.367304 14.88611 C 55.939876 15.753678 55.412344 16.489363 54.784707 17.093165 C 54.160249 17.698556 53.470644 18.000457 52.71748 18.000457 Z M 54.851443 13.584758 C 55.22008 13.584758 55.542638 13.478298 55.820704 13.266967 C 56.098771 13.05087 56.314869 12.790282 56.472175 12.485203 C 56.627892 12.180124 56.705751 11.878223 56.705751 11.5795 C 56.705751 11.225163 56.605647 10.948686 56.40385 10.751656 C 56.205231 10.549859 55.936698 10.449755 55.596662 10.449755 C 55.228025 10.449755 54.908646 10.549859 54.638524 10.751656 C 54.368402 10.948686 54.157071 11.201329 54.00771 11.506408 C 53.859937 11.811487 53.785256 12.121333 53.785256 12.432767 C 53.785256 12.787104 53.880594 13.068348 54.071268 13.276501 C 54.26512 13.481476 54.525708 13.584758 54.851443 13.584758 Z M 62.762838 18.000457 C 62.267084 18.000457 61.882558 17.851095 61.612436 17.552372 C 61.340725 17.253649 61.205664 16.883423 61.205664 16.443283 C 61.205664 15.945941 61.250155 15.324661 61.335958 14.579442 C 61.420173 13.832634 61.610847 13.025447 61.90957 12.157878 C 62.208293 11.27601 62.499071 10.472 62.783494 9.745849 C 63.067916 9.021286 63.357106 8.436552 63.647884 7.996412 C 63.940251 7.554683 64.227852 7.335408 64.512274 7.335408 C 64.755384 7.335408 64.925402 7.416444 65.023917 7.580107 C 65.124021 7.74218 65.174867 7.932854 65.174867 8.147363 C 65.174867 8.501699 65.279738 8.74322 65.492658 8.871925 C 65.707166 8.999041 65.985233 8.892581 66.325269 8.547779 C 66.724096 8.16643 67.137224 7.869296 67.564652 7.657965 C 67.99208 7.441868 68.438576 7.335408 68.907317 7.335408 C 69.431671 7.335408 69.846387 7.464113 70.153055 7.719934 C 70.458134 7.974167 70.66152 8.293546 70.761624 8.678073 C 70.790225 8.821078 70.845838 8.902115 70.928464 8.922771 C 71.015856 8.943428 71.136617 8.862391 71.292334 8.678073 C 71.705462 8.223632 72.140835 7.880419 72.595275 7.646843 C 73.049715 7.411678 73.534346 7.294095 74.047578 7.294095 C 74.884956 7.294095 75.472868 7.486358 75.812904 7.870885 C 76.157706 8.253822 76.329313 8.714619 76.329313 9.256451 C 76.329313 9.625088 76.272111 9.961946 76.157706 10.267025 C 76.04648 10.572104 75.933664 10.870827 75.817671 11.163194 C 75.703266 11.453973 75.646064 11.778119 75.646064 12.135633 C 75.646064 12.876085 75.995633 13.246311 76.693183 13.246311 C 77.018919 13.246311 77.292218 13.143029 77.511494 12.938054 C 77.732358 12.729901 77.950045 12.469313 78.161375 12.157878 C 78.27578 11.986272 78.425142 11.925891 78.60946 11.975149 C 78.796956 12.022818 78.949496 12.119744 79.068667 12.26116 C 79.189428 12.404166 79.208495 12.545583 79.12587 12.688589 C 78.982864 12.917398 78.811257 13.249489 78.60946 13.683273 C 78.41243 14.113879 78.174087 14.574675 77.89602 15.068839 C 77.617954 15.558237 77.293807 16.026978 76.921993 16.473473 C 76.554945 16.921558 76.140228 17.288606 75.677843 17.573028 C 75.215458 17.857451 74.694281 18.000457 74.111136 18.000457 C 73.429475 18.000457 72.954378 17.776414 72.684256 17.32833 C 72.412546 16.880245 72.277485 16.351124 72.277485 15.739377 C 72.277485 15.199133 72.352165 14.682724 72.501527 14.193327 C 72.650888 13.703929 72.80025 13.255845 72.949611 12.849073 C 73.098973 12.44389 73.173654 12.097498 73.173654 11.813076 C 73.173654 11.573144 73.098973 11.390414 72.949611 11.261709 C 72.80025 11.133004 72.60322 11.069446 72.36011 11.069446 C 71.946982 11.069446 71.567223 11.239464 71.220831 11.5795 C 70.872851 11.919536 70.591606 12.346964 70.377098 12.860195 C 70.164178 13.370249 70.059307 13.896192 70.059307 14.438025 C 70.059307 14.751049 70.083141 14.99257 70.132399 15.162588 C 70.183245 15.332605 70.210258 15.572537 70.210258 15.885561 C 70.210258 16.187462 70.162589 16.498897 70.068841 16.818276 C 69.975093 17.137655 69.793952 17.407777 69.522241 17.630231 C 69.255297 17.849506 68.850114 17.957555 68.30987 17.957555 C 67.826829 17.957555 67.420057 17.822494 67.091144 17.552372 C 66.76382 17.280661 66.601747 16.79762 66.601747 16.09848 C 66.601747 15.561415 66.689139 15.043416 66.867102 14.547663 C 67.046653 14.047143 67.226205 13.576813 67.402579 13.136673 C 67.580541 12.694944 67.667934 12.297706 67.667934 11.94337 C 67.667934 11.658947 67.593253 11.449206 67.44548 11.314145 C 67.296119 11.177495 67.099089 11.110759 66.855979 11.110759 C 66.446029 11.110759 66.06627 11.285544 65.715111 11.636702 C 65.368719 11.983094 65.087475 12.434356 64.872966 12.99049 C 64.660047 13.541856 64.555176 14.139302 64.555176 14.781239 L 64.555176 15.739377 C 64.555176 16.093714 64.510685 16.446461 64.424882 16.79762 C 64.340667 17.144011 64.170649 17.431612 63.913239 17.66201 C 63.660596 17.887641 63.277658 18.000457 62.762838 18.000457 Z M 86.43664 12.157878 C 86.551044 11.986272 86.695639 11.925891 86.873602 11.975149 C 87.053153 12.022818 87.202515 12.119744 87.321686 12.26116 C 87.442446 12.404166 87.469459 12.545583 87.399545 12.688589 C 87.28514 12.931698 87.116711 13.270145 86.894258 13.703929 C 86.674982 14.137713 86.400094 14.600098 86.066414 15.089496 C 85.732734 15.578893 85.327551 16.044456 84.847687 16.484596 C 84.37259 16.924736 83.825991 17.285428 83.207888 17.561906 C 82.589786 17.839972 81.881113 17.9798 81.08187 17.9798 C 80.145977 17.9798 79.402347 17.781181 78.854159 17.385532 C 78.309148 16.986705 77.935744 16.481418 77.733947 15.869671 C 77.536917 15.256336 77.481304 14.614399 77.567107 13.948628 C 77.651322 13.27809 77.848352 12.680644 78.161375 12.157878 L 78.250357 12.027584 C 78.631705 11.515942 79.009876 10.959808 79.384869 10.356006 C 79.763039 9.750616 80.152333 9.181771 80.55116 8.647883 C 80.949987 8.112406 81.361526 7.672266 81.785776 7.324285 C 82.213204 6.977894 82.653344 6.803109 83.107784 6.803109 C 83.778322 6.803109 84.272486 6.960415 84.591866 7.27185 C 84.911245 7.584873 85.065374 7.910609 85.051073 8.252233 C 85.051073 8.422251 84.976392 8.563668 84.827031 8.678073 C 84.677669 8.792477 84.498118 8.897348 84.289965 8.991096 C 84.08499 9.081667 83.905438 9.194482 83.748132 9.329543 C 83.592415 9.464604 83.514556 9.6378 83.514556 9.85072 C 83.514556 9.979425 83.613071 10.235246 83.81169 10.621362 C 84.013487 11.00271 84.226407 11.433316 84.452038 11.91318 C 84.680847 12.388277 84.839742 12.845895 84.925546 13.287624 C 85.25287 13.273323 85.530937 13.160507 85.764513 12.949177 C 85.999678 12.733079 86.22372 12.469313 86.43664 12.157878 Z M 80.317584 13.584758 C 80.786325 13.584758 81.148606 13.435396 81.406016 13.136673 C 81.661838 12.83795 81.790543 12.467724 81.790543 12.027584 C 81.790543 11.770174 81.750819 11.507997 81.671371 11.241053 C 81.591924 10.969342 81.472752 10.692864 81.317035 10.406853 C 81.174029 10.12243 81.004011 10.12243 80.806981 10.406853 C 80.53527 10.807269 80.24767 11.209274 79.942591 11.616046 C 79.635923 12.018051 79.364212 12.375565 79.124281 12.688589 C 79.124281 12.945999 79.233918 13.158919 79.453194 13.328936 C 79.675647 13.498954 79.963247 13.584758 80.317584 13.584758 Z M 80.317584 13.584758 " stroke="#f7f7f7" stroke-width="2.346663" stroke-opacity="1" stroke-miterlimit="4"/><g fill="#fd4701" fill-opacity="1"><g transform="translate(90.60292, 165.721534)"><g><path d="M 6.96875 2.203125 C 4.84375 2.203125 3.101562 1.773438 1.75 0.921875 C 0.40625 0.0664062 -0.566406 -1.039062 -1.171875 -2.40625 C -1.785156 -3.769531 -2.09375 -5.171875 -2.09375 -6.609375 C -2.09375 -8.035156 -1.800781 -9.40625 -1.21875 -10.71875 C -0.644531 -12.03125 0.160156 -13.097656 1.203125 -13.921875 C 2.253906 -14.742188 3.476562 -15.15625 4.875 -15.15625 C 5.394531 -15.15625 5.65625 -14.945312 5.65625 -14.53125 C 5.65625 -13.375 6.15625 -12.4375 7.15625 -11.71875 C 8.15625 -11 9.367188 -10.640625 10.796875 -10.640625 C 12.441406 -10.640625 14.191406 -11.347656 16.046875 -12.765625 C 17.898438 -14.179688 19.4375 -16.460938 20.65625 -19.609375 C 21.113281 -20.796875 21.578125 -22.023438 22.046875 -23.296875 C 22.523438 -24.578125 22.988281 -25.78125 23.4375 -26.90625 C 23.789062 -27.8125 24.253906 -28.457031 24.828125 -28.84375 C 25.398438 -29.226562 26.070312 -29.421875 26.84375 -29.421875 C 27.96875 -29.421875 28.675781 -29.164062 28.96875 -28.65625 C 29.269531 -28.144531 29.332031 -27.453125 29.15625 -26.578125 C 28.976562 -25.742188 28.644531 -24.707031 28.15625 -23.46875 C 27.664062 -22.226562 27.140625 -20.929688 26.578125 -19.578125 C 26.023438 -18.234375 25.546875 -16.957031 25.140625 -15.75 C 24.742188 -14.550781 24.546875 -13.550781 24.546875 -12.75 C 24.546875 -12.082031 24.742188 -11.507812 25.140625 -11.03125 C 25.546875 -10.5625 26.1875 -10.328125 27.0625 -10.328125 C 28.207031 -10.328125 29.253906 -10.71875 30.203125 -11.5 C 31.148438 -12.289062 31.976562 -13.332031 32.6875 -14.625 C 33.40625 -15.914062 33.957031 -17.347656 34.34375 -18.921875 C 34.726562 -20.503906 34.921875 -22.0625 34.921875 -23.59375 C 34.921875 -25.101562 34.648438 -26.484375 34.109375 -27.734375 C 33.566406 -28.992188 32.625 -30.015625 31.28125 -30.796875 C 29.9375 -31.585938 28.054688 -31.984375 25.640625 -31.984375 C 23.992188 -31.984375 22.421875 -31.710938 20.921875 -31.171875 C 19.421875 -30.628906 18.195312 -29.796875 17.25 -28.671875 C 16.3125 -27.554688 15.84375 -26.09375 15.84375 -24.28125 C 15.84375 -23.507812 16.03125 -22.867188 16.40625 -22.359375 C 16.789062 -21.859375 17.265625 -21.609375 17.828125 -21.609375 C 18.210938 -21.566406 18.304688 -21.195312 18.109375 -20.5 C 17.921875 -19.800781 17.503906 -19.003906 16.859375 -18.109375 C 16.210938 -17.222656 15.378906 -16.445312 14.359375 -15.78125 C 13.347656 -15.113281 12.210938 -14.78125 10.953125 -14.78125 C 9.523438 -14.78125 8.320312 -15.140625 7.34375 -15.859375 C 6.363281 -16.578125 5.628906 -17.519531 5.140625 -18.6875 C 4.648438 -19.863281 4.40625 -21.113281 4.40625 -22.4375 C 4.40625 -24.675781 4.898438 -26.789062 5.890625 -28.78125 C 6.890625 -30.78125 8.296875 -32.546875 10.109375 -34.078125 C 11.929688 -35.617188 14.09375 -36.828125 16.59375 -37.703125 C 19.09375 -38.578125 21.847656 -39.015625 24.859375 -39.015625 C 28.210938 -39.015625 31.035156 -38.566406 33.328125 -37.671875 C 35.617188 -36.785156 37.453125 -35.5625 38.828125 -34 C 40.210938 -32.445312 41.207031 -30.664062 41.8125 -28.65625 C 42.425781 -26.644531 42.734375 -24.519531 42.734375 -22.28125 C 42.734375 -19.488281 42.3125 -16.738281 41.46875 -14.03125 C 40.632812 -11.320312 39.492188 -8.875 38.046875 -6.6875 C 36.597656 -4.5 34.925781 -2.75 33.03125 -1.4375 C 31.144531 -0.125 29.15625 0.53125 27.0625 0.53125 C 24.894531 0.53125 23.179688 -0.125 21.921875 -1.4375 C 20.660156 -2.75 19.960938 -4.488281 19.828125 -6.65625 C 18.359375 -3.925781 16.519531 -1.765625 14.3125 -0.171875 C 12.113281 1.410156 9.664062 2.203125 6.96875 2.203125 Z M 6.96875 2.203125 "/></g></g></g><g fill="#fd4701" fill-opacity="1"><g transform="translate(133.283261, 165.721534)"><g><path d="M 21.921875 -14.375 C 22.203125 -14.789062 22.566406 -14.9375 23.015625 -14.8125 C 23.472656 -14.6875 23.847656 -14.445312 24.140625 -14.09375 C 24.441406 -13.75 24.488281 -13.40625 24.28125 -13.0625 C 23.925781 -12.5 23.503906 -11.679688 23.015625 -10.609375 C 22.523438 -9.546875 21.9375 -8.410156 21.25 -7.203125 C 20.570312 -6.003906 19.78125 -4.851562 18.875 -3.75 C 17.96875 -2.644531 16.945312 -1.742188 15.8125 -1.046875 C 14.675781 -0.347656 13.390625 0 11.953125 0 C 10.523438 0 9.390625 -0.269531 8.546875 -0.8125 C 7.703125 -1.351562 7.097656 -2.050781 6.734375 -2.90625 C 6.367188 -3.757812 6.1875 -4.625 6.1875 -5.5 C 6.1875 -6.726562 6.367188 -7.9375 6.734375 -9.125 C 7.097656 -10.3125 7.523438 -11.445312 8.015625 -12.53125 C 8.503906 -13.613281 8.929688 -14.609375 9.296875 -15.515625 C 9.671875 -16.429688 9.859375 -17.203125 9.859375 -17.828125 C 9.859375 -18.109375 9.65625 -18.519531 9.25 -19.0625 C 8.851562 -19.601562 8.128906 -20.066406 7.078125 -20.453125 C 6.765625 -19.753906 6.390625 -18.941406 5.953125 -18.015625 C 5.515625 -17.085938 5.078125 -16.175781 4.640625 -15.28125 C 4.203125 -14.394531 3.84375 -13.65625 3.5625 -13.0625 C 3.351562 -12.601562 3.007812 -12.4375 2.53125 -12.5625 C 2.0625 -12.6875 1.671875 -12.9375 1.359375 -13.3125 C 1.046875 -13.695312 0.992188 -14.050781 1.203125 -14.375 C 1.691406 -15.070312 2.234375 -16.09375 2.828125 -17.4375 C 3.421875 -18.78125 3.945312 -20.046875 4.40625 -21.234375 C 3.882812 -21.410156 3.460938 -21.707031 3.140625 -22.125 C 2.828125 -22.550781 2.671875 -23.234375 2.671875 -24.171875 C 2.671875 -24.910156 2.863281 -25.632812 3.25 -26.34375 C 3.632812 -27.0625 4.175781 -27.664062 4.875 -28.15625 C 5.570312 -28.644531 6.394531 -28.890625 7.34375 -28.890625 C 8.988281 -28.890625 10.570312 -28.570312 12.09375 -27.9375 C 13.613281 -27.3125 14.859375 -26.519531 15.828125 -25.5625 C 16.804688 -24.601562 17.296875 -23.648438 17.296875 -22.703125 C 17.296875 -21.722656 17.113281 -20.796875 16.75 -19.921875 C 16.382812 -19.046875 16.007812 -18.15625 15.625 -17.25 C 15.238281 -16.34375 15.046875 -15.347656 15.046875 -14.265625 C 15.046875 -13.523438 15.289062 -12.910156 15.78125 -12.421875 C 16.269531 -11.929688 17.109375 -11.6875 18.296875 -11.6875 C 19.097656 -11.6875 19.769531 -11.941406 20.3125 -12.453125 C 20.851562 -12.960938 21.390625 -13.601562 21.921875 -14.375 Z M 21.921875 -14.375 "/></g></g></g><g fill="#fd4701" fill-opacity="1"><g transform="translate(153.994226, 165.721534)"><g><path d="M 9.859375 0 C 7.765625 0 6.039062 -0.46875 4.6875 -1.40625 C 3.34375 -2.351562 2.347656 -3.601562 1.703125 -5.15625 C 1.054688 -6.71875 0.738281 -8.429688 0.75 -10.296875 C 0.769531 -12.171875 1.09375 -14.039062 1.71875 -15.90625 C 2.351562 -17.78125 3.265625 -19.492188 4.453125 -21.046875 C 5.640625 -22.609375 7.082031 -23.859375 8.78125 -24.796875 C 10.476562 -25.742188 12.394531 -26.21875 14.53125 -26.21875 C 16.164062 -26.21875 17.5 -25.910156 18.53125 -25.296875 C 19.5625 -24.691406 20.320312 -23.878906 20.8125 -22.859375 C 21.300781 -21.847656 21.546875 -20.765625 21.546875 -19.609375 C 21.546875 -18.347656 21.195312 -17.085938 20.5 -15.828125 C 19.800781 -14.578125 18.820312 -13.539062 17.5625 -12.71875 C 16.300781 -11.894531 14.816406 -11.484375 13.109375 -11.484375 C 12.378906 -11.484375 11.660156 -11.535156 10.953125 -11.640625 C 10.253906 -11.742188 9.609375 -11.972656 9.015625 -12.328125 C 8.835938 -12.429688 8.644531 -12.4375 8.4375 -12.34375 C 8.226562 -12.257812 8.125 -12.039062 8.125 -11.6875 C 8.125 -10.78125 8.65625 -10.09375 9.71875 -9.625 C 10.789062 -9.15625 12.078125 -8.921875 13.578125 -8.921875 C 15.359375 -8.921875 17.203125 -9.375 19.109375 -10.28125 C 21.015625 -11.1875 22.5625 -12.550781 23.75 -14.375 C 24.03125 -14.789062 24.394531 -14.9375 24.84375 -14.8125 C 25.300781 -14.6875 25.675781 -14.445312 25.96875 -14.09375 C 26.269531 -13.75 26.316406 -13.40625 26.109375 -13.0625 C 23.804688 -8.789062 21.28125 -5.546875 18.53125 -3.328125 C 15.789062 -1.109375 12.898438 0 9.859375 0 Z M 11.75 -15.421875 C 12.757812 -15.421875 13.550781 -15.742188 14.125 -16.390625 C 14.707031 -17.035156 15 -17.691406 15 -18.359375 C 15 -18.953125 14.796875 -19.457031 14.390625 -19.875 C 13.992188 -20.289062 13.390625 -20.5 12.578125 -20.5 C 11.566406 -20.5 10.765625 -20.179688 10.171875 -19.546875 C 9.578125 -18.921875 9.28125 -18.257812 9.28125 -17.5625 C 9.28125 -17.007812 9.476562 -16.515625 9.875 -16.078125 C 10.28125 -15.640625 10.90625 -15.421875 11.75 -15.421875 Z M 11.75 -15.421875 "/></g></g></g><g fill="#fd4701" fill-opacity="1"><g transform="translate(176.540348, 165.721534)"><g><path d="M 5.5625 0 C 3.78125 0 2.429688 -0.734375 1.515625 -2.203125 C 0.609375 -3.671875 0.15625 -5.578125 0.15625 -7.921875 C 0.15625 -9.390625 0.335938 -10.953125 0.703125 -12.609375 C 1.078125 -14.273438 1.617188 -15.910156 2.328125 -17.515625 C 3.046875 -19.117188 3.945312 -20.578125 5.03125 -21.890625 C 6.113281 -23.203125 7.367188 -24.25 8.796875 -25.03125 C 10.234375 -25.820312 11.863281 -26.21875 13.6875 -26.21875 C 14.738281 -26.21875 15.550781 -26.117188 16.125 -25.921875 C 16.695312 -25.734375 17.128906 -25.5 17.421875 -25.21875 C 17.722656 -24.9375 17.976562 -24.695312 18.1875 -24.5 C 18.40625 -24.3125 18.6875 -24.21875 19.03125 -24.21875 C 19.625 -24.21875 20.101562 -24.382812 20.46875 -24.71875 C 20.84375 -25.050781 21.253906 -25.382812 21.703125 -25.71875 C 22.160156 -26.050781 22.789062 -26.21875 23.59375 -26.21875 C 24.289062 -26.21875 24.769531 -26.039062 25.03125 -25.6875 C 25.300781 -25.34375 25.4375 -24.875 25.4375 -24.28125 C 25.4375 -23.300781 25.164062 -22.328125 24.625 -21.359375 C 24.082031 -20.398438 23.515625 -19.15625 22.921875 -17.625 C 22.046875 -15.695312 21.71875 -14.222656 21.9375 -13.203125 C 22.164062 -12.191406 22.859375 -11.6875 24.015625 -11.6875 C 24.921875 -11.6875 25.707031 -11.921875 26.375 -12.390625 C 27.039062 -12.867188 27.632812 -13.53125 28.15625 -14.375 C 28.4375 -14.789062 28.796875 -14.9375 29.234375 -14.8125 C 29.671875 -14.6875 30.035156 -14.445312 30.328125 -14.09375 C 30.628906 -13.75 30.691406 -13.40625 30.515625 -13.0625 C 29.890625 -11.832031 29.21875 -10.472656 28.5 -8.984375 C 27.78125 -7.503906 26.984375 -6.082031 26.109375 -4.71875 C 25.234375 -3.351562 24.238281 -2.222656 23.125 -1.328125 C 22.007812 -0.441406 20.71875 0 19.25 0 C 17.425781 0 16.140625 -0.734375 15.390625 -2.203125 C 14.640625 -3.671875 14.421875 -5.488281 14.734375 -7.65625 L 14.53125 -7.65625 C 13.476562 -5.519531 12.179688 -3.707031 10.640625 -2.21875 C 9.109375 -0.738281 7.414062 0 5.5625 0 Z M 10.796875 -10.859375 C 11.710938 -10.859375 12.507812 -11.117188 13.1875 -11.640625 C 13.863281 -12.160156 14.394531 -12.796875 14.78125 -13.546875 C 15.164062 -14.304688 15.359375 -15.050781 15.359375 -15.78125 C 15.359375 -16.65625 15.113281 -17.335938 14.625 -17.828125 C 14.132812 -18.316406 13.472656 -18.5625 12.640625 -18.5625 C 11.734375 -18.5625 10.945312 -18.316406 10.28125 -17.828125 C 9.613281 -17.335938 9.097656 -16.71875 8.734375 -15.96875 C 8.367188 -15.21875 8.1875 -14.457031 8.1875 -13.6875 C 8.1875 -12.8125 8.421875 -12.117188 8.890625 -11.609375 C 9.359375 -11.109375 9.992188 -10.859375 10.796875 -10.859375 Z M 10.796875 -10.859375 "/></g></g></g><g fill="#fd4701" fill-opacity="1"><g transform="translate(203.490857, 165.721534)"><g><path d="M 3.296875 0 C 2.078125 0 1.132812 -0.363281 0.46875 -1.09375 C -0.195312 -1.832031 -0.53125 -2.742188 -0.53125 -3.828125 C -0.53125 -5.046875 -0.421875 -6.570312 -0.203125 -8.40625 C 0.00390625 -10.25 0.472656 -12.238281 1.203125 -14.375 C 1.941406 -16.539062 2.660156 -18.515625 3.359375 -20.296875 C 4.054688 -22.078125 4.765625 -23.507812 5.484375 -24.59375 C 6.203125 -25.675781 6.910156 -26.21875 7.609375 -26.21875 C 8.203125 -26.21875 8.617188 -26.015625 8.859375 -25.609375 C 9.109375 -25.210938 9.234375 -24.75 9.234375 -24.21875 C 9.234375 -23.351562 9.492188 -22.757812 10.015625 -22.4375 C 10.535156 -22.125 11.21875 -22.390625 12.0625 -23.234375 C 13.039062 -24.171875 14.050781 -24.898438 15.09375 -25.421875 C 16.144531 -25.953125 17.25 -26.21875 18.40625 -26.21875 C 19.695312 -26.21875 20.71875 -25.898438 21.46875 -25.265625 C 22.21875 -24.640625 22.71875 -23.859375 22.96875 -22.921875 C 23.039062 -22.566406 23.179688 -22.363281 23.390625 -22.3125 C 23.597656 -22.257812 23.894531 -22.460938 24.28125 -22.921875 C 25.289062 -24.035156 26.351562 -24.878906 27.46875 -25.453125 C 28.59375 -26.035156 29.785156 -26.328125 31.046875 -26.328125 C 33.109375 -26.328125 34.554688 -25.851562 35.390625 -24.90625 C 36.234375 -23.957031 36.65625 -22.820312 36.65625 -21.5 C 36.65625 -20.59375 36.515625 -19.757812 36.234375 -19 C 35.953125 -18.25 35.671875 -17.515625 35.390625 -16.796875 C 35.109375 -16.085938 34.96875 -15.296875 34.96875 -14.421875 C 34.96875 -12.597656 35.828125 -11.6875 37.546875 -11.6875 C 38.347656 -11.6875 39.019531 -11.941406 39.5625 -12.453125 C 40.101562 -12.960938 40.632812 -13.601562 41.15625 -14.375 C 41.4375 -14.789062 41.804688 -14.9375 42.265625 -14.8125 C 42.722656 -14.6875 43.097656 -14.445312 43.390625 -14.09375 C 43.691406 -13.75 43.734375 -13.40625 43.515625 -13.0625 C 43.171875 -12.5 42.753906 -11.679688 42.265625 -10.609375 C 41.773438 -9.546875 41.1875 -8.410156 40.5 -7.203125 C 39.820312 -6.003906 39.03125 -4.851562 38.125 -3.75 C 37.21875 -2.644531 36.191406 -1.742188 35.046875 -1.046875 C 33.910156 -0.347656 32.628906 0 31.203125 0 C 29.523438 0 28.351562 -0.546875 27.6875 -1.640625 C 27.019531 -2.742188 26.6875 -4.050781 26.6875 -5.5625 C 26.6875 -6.882812 26.867188 -8.148438 27.234375 -9.359375 C 27.609375 -10.566406 27.976562 -11.664062 28.34375 -12.65625 C 28.707031 -13.65625 28.890625 -14.503906 28.890625 -15.203125 C 28.890625 -15.796875 28.707031 -16.25 28.34375 -16.5625 C 27.976562 -16.882812 27.5 -17.046875 26.90625 -17.046875 C 25.882812 -17.046875 24.945312 -16.625 24.09375 -15.78125 C 23.238281 -14.945312 22.546875 -13.898438 22.015625 -12.640625 C 21.492188 -11.378906 21.234375 -10.082031 21.234375 -8.75 C 21.234375 -7.988281 21.296875 -7.394531 21.421875 -6.96875 C 21.546875 -6.550781 21.609375 -5.957031 21.609375 -5.1875 C 21.609375 -4.457031 21.492188 -3.695312 21.265625 -2.90625 C 21.035156 -2.125 20.585938 -1.460938 19.921875 -0.921875 C 19.265625 -0.378906 18.269531 -0.109375 16.9375 -0.109375 C 15.75 -0.109375 14.753906 -0.4375 13.953125 -1.09375 C 13.148438 -1.757812 12.75 -2.953125 12.75 -4.671875 C 12.75 -5.992188 12.960938 -7.265625 13.390625 -8.484375 C 13.828125 -9.710938 14.265625 -10.867188 14.703125 -11.953125 C 15.140625 -13.035156 15.359375 -14.015625 15.359375 -14.890625 C 15.359375 -15.585938 15.175781 -16.101562 14.8125 -16.4375 C 14.445312 -16.769531 13.96875 -16.9375 13.375 -16.9375 C 12.351562 -16.9375 11.414062 -16.507812 10.5625 -15.65625 C 9.707031 -14.800781 9.015625 -13.691406 8.484375 -12.328125 C 7.960938 -10.960938 7.703125 -9.492188 7.703125 -7.921875 L 7.703125 -5.5625 C 7.703125 -4.6875 7.597656 -3.816406 7.390625 -2.953125 C 7.179688 -2.097656 6.757812 -1.390625 6.125 -0.828125 C 5.5 -0.273438 4.554688 0 3.296875 0 Z M 3.296875 0 "/></g></g></g><g fill="#fd4701" fill-opacity="1"><g transform="translate(243.444683, 165.721534)"><g><path d="M 21.546875 -14.375 C 21.828125 -14.789062 22.1875 -14.9375 22.625 -14.8125 C 23.0625 -14.6875 23.425781 -14.445312 23.71875 -14.09375 C 24.019531 -13.75 24.082031 -13.40625 23.90625 -13.0625 C 23.625 -12.46875 23.210938 -11.632812 22.671875 -10.5625 C 22.128906 -9.5 21.445312 -8.363281 20.625 -7.15625 C 19.8125 -5.945312 18.816406 -4.800781 17.640625 -3.71875 C 16.472656 -2.632812 15.128906 -1.75 13.609375 -1.0625 C 12.085938 -0.382812 10.347656 -0.046875 8.390625 -0.046875 C 6.078125 -0.046875 4.25 -0.535156 2.90625 -1.515625 C 1.5625 -2.492188 0.644531 -3.734375 0.15625 -5.234375 C -0.332031 -6.742188 -0.472656 -8.316406 -0.265625 -9.953125 C -0.0546875 -11.597656 0.429688 -13.070312 1.203125 -14.375 L 1.421875 -14.6875 C 2.359375 -15.9375 3.289062 -17.304688 4.21875 -18.796875 C 5.144531 -20.285156 6.097656 -21.679688 7.078125 -22.984375 C 8.054688 -24.296875 9.066406 -25.378906 10.109375 -26.234375 C 11.160156 -27.097656 12.25 -27.53125 13.375 -27.53125 C 15.019531 -27.53125 16.234375 -27.144531 17.015625 -26.375 C 17.804688 -25.601562 18.179688 -24.800781 18.140625 -23.96875 C 18.140625 -23.539062 17.957031 -23.1875 17.59375 -22.90625 C 17.226562 -22.632812 16.789062 -22.382812 16.28125 -22.15625 C 15.769531 -21.925781 15.320312 -21.644531 14.9375 -21.3125 C 14.5625 -20.976562 14.375 -20.550781 14.375 -20.03125 C 14.375 -19.71875 14.617188 -19.085938 15.109375 -18.140625 C 15.597656 -17.203125 16.117188 -16.144531 16.671875 -14.96875 C 17.234375 -13.800781 17.617188 -12.675781 17.828125 -11.59375 C 18.628906 -11.625 19.316406 -11.898438 19.890625 -12.421875 C 20.472656 -12.953125 21.023438 -13.601562 21.546875 -14.375 Z M 6.5 -10.859375 C 7.65625 -10.859375 8.546875 -11.222656 9.171875 -11.953125 C 9.804688 -12.691406 10.125 -13.601562 10.125 -14.6875 C 10.125 -15.3125 10.023438 -15.957031 9.828125 -16.625 C 9.640625 -17.289062 9.351562 -17.972656 8.96875 -18.671875 C 8.613281 -19.367188 8.191406 -19.367188 7.703125 -18.671875 C 7.046875 -17.691406 6.335938 -16.703125 5.578125 -15.703125 C 4.828125 -14.703125 4.15625 -13.820312 3.5625 -13.0625 C 3.5625 -12.425781 3.832031 -11.898438 4.375 -11.484375 C 4.914062 -11.066406 5.625 -10.859375 6.5 -10.859375 Z M 6.5 -10.859375 "/></g></g></g></svg>